HIERARCHY
ROOT Root
{
  OFFSET 0.0 0.0 0.0
  CHANNELS 6 Xposition Yposition Zposition Zrotation Yrotation Xrotation
  JOINT Hips
  {
    OFFSET 0.0 100.0 0.0
    CHANNELS 6 Xposition Yposition Zposition Zrotation Yrotation Xrotation
    JOINT Spine1
    {
      OFFSET 5.003913 -0.037094 -0.013727
      CHANNELS 3 Zrotation Yrotation Xrotation
      JOINT Spine2
      {
        OFFSET 7.125363 -1e-06 0.0
        CHANNELS 3 Zrotation Yrotation Xrotation
        JOINT Chest
        {
          OFFSET 7.594027 1e-06 0.0
          CHANNELS 3 Zrotation Yrotation Xrotation
          JOINT Neck1
          {
            OFFSET 26.313086 -0.460272 -0.181672
            CHANNELS 3 Zrotation Yrotation Xrotation
            JOINT Neck2
            {
              OFFSET 8.045911 0.0 0.0
              CHANNELS 3 Zrotation Yrotation Xrotation
              JOINT Head
              {
                OFFSET 6.432774 0.0 0.0
                CHANNELS 3 Zrotation Yrotation Xrotation
                JOINT HeadEnd
                {
                  OFFSET 16.169773 0.06451 0.00362
                  CHANNELS 3 Zrotation Yrotation Xrotation
                }
                JOINT Jaw
                {
                  OFFSET 0.108741 3.12938 0.002639
                  CHANNELS 3 Zrotation Yrotation Xrotation
                }
                JOINT LeftEye
                {
                  OFFSET 4.45173 8.166359 3.206392
                  CHANNELS 3 Zrotation Yrotation Xrotation
                }
                JOINT RightEye
                {
                  OFFSET 4.436895 8.135758 -3.222429
                  CHANNELS 3 Zrotation Yrotation Xrotation
                }
              }
            }
          }
          JOINT LeftShoulder
          {
            OFFSET 23.218927 5.195579 1.621656
            CHANNELS 3 Zrotation Yrotation Xrotation
            JOINT LeftArm
            {
              OFFSET 15.902118 2e-06 -2e-06
              CHANNELS 3 Zrotation Yrotation Xrotation
              JOINT LeftForeArm
              {
                OFFSET 28.739307 0.0 -1e-06
                CHANNELS 3 Zrotation Yrotation Xrotation
                JOINT LeftHand
                {
                  OFFSET 27.093981 -4e-06 0.0
                  CHANNELS 3 Zrotation Yrotation Xrotation
                  JOINT LeftHandThumb1
                  {
                    OFFSET 2.276781 3.380274 0.83384
                    CHANNELS 3 Zrotation Yrotation Xrotation
                    JOINT LeftHandThumb2
                    {
                      OFFSET 4.705309 -1e-06 -1e-06
                      CHANNELS 3 Zrotation Yrotation Xrotation
                      JOINT LeftHandThumb3
                      {
                        OFFSET 2.798515 0.0 3e-06
                        CHANNELS 3 Zrotation Yrotation Xrotation
                        JOINT LeftHandThumbEnd
                        {
                          OFFSET 3.180793 4e-06 -4e-06
                          CHANNELS 3 Zrotation Yrotation Xrotation
                        }
                      }
                    }
                  }
                  JOINT LeftHandIndex1
                  {
                    OFFSET 3.247786 2.352677 0.137192
                    CHANNELS 3 Zrotation Yrotation Xrotation
                    JOINT LeftHandIndex2
                    {
                      OFFSET 6.367095 1e-06 0.0
                      CHANNELS 3 Zrotation Yrotation Xrotation
                      JOINT LeftHandIndex3
                      {
                        OFFSET 3.662364 0.0 0.0
                        CHANNELS 3 Zrotation Yrotation Xrotation
                        JOINT LeftHandIndex4
                        {
                          OFFSET 2.329242 4e-06 -4e-06
                          CHANNELS 3 Zrotation Yrotation Xrotation
                          JOINT LeftHandIndexEnd
                          {
                            OFFSET 2.767823 1e-06 0.0
                            CHANNELS 3 Zrotation Yrotation Xrotation
                          }
                        }
                      }
                    }
                  }
                  JOINT LeftHandMiddle1
                  {
                    OFFSET 3.163612 0.945023 -0.406112
                    CHANNELS 3 Zrotation Yrotation Xrotation
                    JOINT LeftHandMiddle2
                    {
                      OFFSET 6.276789 3e-06 0.0
                      CHANNELS 3 Zrotation Yrotation Xrotation
                      JOINT LeftHandMiddle3
                      {
                        OFFSET 4.35652 -1e-06 4e-06
                        CHANNELS 3 Zrotation Yrotation Xrotation
                        JOINT LeftHandMiddle4
                        {
                          OFFSET 2.996877 0.0 8e-06
                          CHANNELS 3 Zrotation Yrotation Xrotation
                          JOINT LeftHandMiddleEnd
                          {
                            OFFSET 2.323256 3e-06 -4e-06
                            CHANNELS 3 Zrotation Yrotation Xrotation
                          }
                        }
                      }
                    }
                  }
                  JOINT LeftHandRing1
                  {
                    OFFSET 2.882606 -0.309162 0.107445
                    CHANNELS 3 Zrotation Yrotation Xrotation
                    JOINT LeftHandRing2
                    {
                      OFFSET 6.033198 0.0 4e-06
                      CHANNELS 3 Zrotation Yrotation Xrotation
                      JOINT LeftHandRing3
                      {
                        OFFSET 4.350578 3e-06 0.0
                        CHANNELS 3 Zrotation Yrotation Xrotation
                        JOINT LeftHandRing4
                        {
                          OFFSET 2.651321 2e-06 -7e-06
                          CHANNELS 3 Zrotation Yrotation Xrotation
                          JOINT LeftHandRingEnd
                          {
                            OFFSET 1.937663 1e-06 -4e-06
                            CHANNELS 3 Zrotation Yrotation Xrotation
                          }
                        }
                      }
                    }
                  }
                  JOINT LeftHandPinky1
                  {
                    OFFSET 2.865315 -1.525436 0.575687
                    CHANNELS 3 Zrotation Yrotation Xrotation
                    JOINT LeftHandPinky2
                    {
                      OFFSET 5.54936 1e-06 -8e-06
                      CHANNELS 3 Zrotation Yrotation Xrotation
                      JOINT LeftHandPinky3
                      {
                        OFFSET 3.070974 0.0 -4e-06
                        CHANNELS 3 Zrotation Yrotation Xrotation
                        JOINT LeftHandPinky4
                        {
                          OFFSET 1.549672 1e-06 0.0
                          CHANNELS 3 Zrotation Yrotation Xrotation
                          JOINT LeftHandPinkyEnd
                          {
                            OFFSET 1.952123 0.0 0.0
                            CHANNELS 3 Zrotation Yrotation Xrotation
                          }
                        }
                      }
                    }
                  }
                }
              }
            }
          }
          JOINT RightShoulder
          {
            OFFSET 23.161716 5.296122 -1.380114
            CHANNELS 3 Zrotation Yrotation Xrotation
            JOINT RightArm
            {
              OFFSET -16.027195 -2e-06 1.1e-05
              CHANNELS 3 Zrotation Yrotation Xrotation
              JOINT RightForeArm
              {
                OFFSET -28.736639 4e-06 2e-06
                CHANNELS 3 Zrotation Yrotation Xrotation
                JOINT RightHand
                {
                  OFFSET -27.133619 6e-06 0.0
                  CHANNELS 3 Zrotation Yrotation Xrotation
                  JOINT RightHandThumb1
                  {
                    OFFSET -2.274328 -3.351035 -0.83067
                    CHANNELS 3 Zrotation Yrotation Xrotation
                    JOINT RightHandThumb2
                    {
                      OFFSET -4.703594 -3e-06 2e-06
                      CHANNELS 3 Zrotation Yrotation Xrotation
                      JOINT RightHandThumb3
                      {
                        OFFSET -2.794935 -4e-06 -3e-06
                        CHANNELS 3 Zrotation Yrotation Xrotation
                        JOINT RightHandThumbEnd
                        {
                          OFFSET -3.183852 4e-06 1e-06
                          CHANNELS 3 Zrotation Yrotation Xrotation
                        }
                      }
                    }
                  }
                  JOINT RightHandIndex1
                  {
                    OFFSET -3.253496 -2.33755 -0.127667
                    CHANNELS 3 Zrotation Yrotation Xrotation
                    JOINT RightHandIndex2
                    {
                      OFFSET -6.344434 0.0 0.0
                      CHANNELS 3 Zrotation Yrotation Xrotation
                      JOINT RightHandIndex3
                      {
                        OFFSET -3.654871 0.0 -8e-06
                        CHANNELS 3 Zrotation Yrotation Xrotation
                        JOINT RightHandIndex4
                        {
                          OFFSET -2.327586 -1e-06 0.0
                          CHANNELS 3 Zrotation Yrotation Xrotation
                          JOINT RightHandIndexEnd
                          {
                            OFFSET -2.770001 3e-06 8e-06
                            CHANNELS 3 Zrotation Yrotation Xrotation
                          }
                        }
                      }
                    }
                  }
                  JOINT RightHandMiddle1
                  {
                    OFFSET -3.168223 -0.944764 0.411762
                    CHANNELS 3 Zrotation Yrotation Xrotation
                    JOINT RightHandMiddle2
                    {
                      OFFSET -6.266691 -1e-06 -4e-06
                      CHANNELS 3 Zrotation Yrotation Xrotation
                      JOINT RightHandMiddle3
                      {
                        OFFSET -4.348901 0.0 0.0
                        CHANNELS 3 Zrotation Yrotation Xrotation
                        JOINT RightHandMiddle4
                        {
                          OFFSET -3.00024 2e-06 -4e-06
                          CHANNELS 3 Zrotation Yrotation Xrotation
                          JOINT RightHandMiddleEnd
                          {
                            OFFSET -2.321477 -4e-06 -4e-06
                            CHANNELS 3 Zrotation Yrotation Xrotation
                          }
                        }
                      }
                    }
                  }
                  JOINT RightHandRing1
                  {
                    OFFSET -2.885654 0.293261 -0.119232
                    CHANNELS 3 Zrotation Yrotation Xrotation
                    JOINT RightHandRing2
                    {
                      OFFSET -6.032835 -1e-06 -4e-06
                      CHANNELS 3 Zrotation Yrotation Xrotation
                      JOINT RightHandRing3
                      {
                        OFFSET -4.33881 0.0 -4e-06
                        CHANNELS 3 Zrotation Yrotation Xrotation
                        JOINT RightHandRing4
                        {
                          OFFSET -2.654903 -4e-06 -4e-06
                          CHANNELS 3 Zrotation Yrotation Xrotation
                          JOINT RightHandRingEnd
                          {
                            OFFSET -1.935122 0.0 4e-06
                            CHANNELS 3 Zrotation Yrotation Xrotation
                          }
                        }
                      }
                    }
                  }
                  JOINT RightHandPinky1
                  {
                    OFFSET -2.866241 1.503904 -0.60527
                    CHANNELS 3 Zrotation Yrotation Xrotation
                    JOINT RightHandPinky2
                    {
                      OFFSET -5.553177 -2e-06 0.0
                      CHANNELS 3 Zrotation Yrotation Xrotation
                      JOINT RightHandPinky3
                      {
                        OFFSET -3.062664 -1e-06 -4e-06
                        CHANNELS 3 Zrotation Yrotation Xrotation
                        JOINT RightHandPinky4
                        {
                          OFFSET -1.546529 2e-06 4e-06
                          CHANNELS 3 Zrotation Yrotation Xrotation
                          JOINT RightHandPinkyEnd
                          {
                            OFFSET -1.952341 0.0 -4e-06
                            CHANNELS 3 Zrotation Yrotation Xrotation
                          }
                        }
                      }
                    }
                  }
                }
              }
            }
          }
        }
      }
    }
    JOINT LeftLeg
    {
      OFFSET -8.443107 2.567604 10.043214
      CHANNELS 3 Zrotation Yrotation Xrotation
      JOINT LeftShin
      {
        OFFSET 43.229198 1e-06 -1e-06
        CHANNELS 3 Zrotation Yrotation Xrotation
        JOINT LeftFoot
        {
          OFFSET 42.298611 1e-06 1e-06
          CHANNELS 3 Zrotation Yrotation Xrotation
          JOINT LeftToeBase
          {
            OFFSET 14.165858 1e-06 0.0
            CHANNELS 3 Zrotation Yrotation Xrotation
            JOINT LeftToeEnd
            {
              OFFSET 6.7141 -0.234461 0.0
              CHANNELS 3 Zrotation Yrotation Xrotation
            }
          }
        }
      }
    }
    JOINT RightLeg
    {
      OFFSET -8.303923 2.592729 -10.047278
      CHANNELS 3 Zrotation Yrotation Xrotation
      JOINT RightShin
      {
        OFFSET -43.369682 0.0 1e-06
        CHANNELS 3 Zrotation Yrotation Xrotation
        JOINT RightFoot
        {
          OFFSET -42.260784 4e-06 2e-06
          CHANNELS 3 Zrotation Yrotation Xrotation
          JOINT RightToeBase
          {
            OFFSET -14.222245 -2e-06 -1e-06
            CHANNELS 3 Zrotation Yrotation Xrotation
            JOINT RightToeEnd
            {
              OFFSET -6.660062 0.232574 -2e-06
              CHANNELS 3 Zrotation Yrotation Xrotation
            }
          }
        }
      }
    }
  }
}
MOTION
Frames: 4
Frame Time: 0.03333333333333333
0.0 0.0 0.0 0.0 -0.0 0.0 0.653655 99.566826 6.081811 90.040459 4.681915 89.961403 -1.061101 0.297881 -0.193558 -10.705093 -0.451014 -0.082127 17.516016 -0.545271 -2.422308 23.453461 -3.078888 2.670601 -2.636013 -0.534871 0.096619 -25.31267 2.170577 -1.521631 0.001907 8.3e-05 -3.5e-05 -0.029987 -0.003359 0.091385 -0.006084 0.091978 0.089269 -0.009223 -0.101431 0.101768 -142.473053 -66.072739 155.861435 15.183408 -54.801788 19.39698 26.254053 0.330186 -0.072811 -2.432033 3.934528 -4.191587 17.640633 -26.347023 52.476349 -19.468172 -14.414438 29.438198 0.003127 -8.787099 -0.002287 15.669745 -18.324982 6.513616 -0.60431 -1.795726 -3.883959 -4.812432 -11.052527 -2.931582 -0.005644 -20.97925 -0.003143 -5.01701 -25.067806 -4.033545 -0.001261 0.001284 -0.001502 -10.636293 -5.690326 -3.553499 10.577063 -17.916599 -3.123043 -0.006214 -13.831053 0.002715 -0.52093 -31.193382 -4.04163 -11.833672 -59.874722 7.832545 -13.993571 -7.151456 -2.862184 13.790376 -8.399264 -3.229741 0.335139 -34.248005 0.776783 -0.9659 -17.731936 2.623755 -0.002556 0.008841 0.006256 -17.36236 -20.10614 -4.188214 21.782539 -1.636297 3.866892 -0.00223 -6.345332 -0.000244 -1.707976 -22.576153 -6.191897 -0.005028 -0.008696 0.007695 24.401274 -65.572052 170.850159 11.112862 -53.41098 20.860723 26.917713 0.17729 0.18147 -15.506883 1.963059 -17.523159 22.235754 -20.354494 49.95879 -16.720964 -16.780575 28.48843 0.002521 -12.722601 -0.005797 16.574142 -17.778099 2.517849 -0.105936 -1.509067 -4.275663 -5.047986 -5.614006 -2.949859 -0.003438 -11.015902 -0.001127 -6.129274 -15.894066 -3.844455 -0.003129 0.005895 -0.001327 -10.303309 -5.680484 -4.335469 11.047503 -11.295974 -2.374354 -1.391519 -14.233744 -6.321125 -0.627711 -26.954746 -3.832688 -4.252398 -50.313 -3.509834 -13.748015 -7.364516 -3.71474 18.186152 -14.051848 -3.245527 -6.9e-05 -18.798437 -0.002857 -0.42776 -8.461331 2.555313 0.000496 -0.010983 0.001071 -15.957226 -20.095745 -5.475678 30.47584 -7.195673 1.746976 0.001398 -8.167481 0.00076 -1.863276 -22.860468 -6.169144 -0.003465 0.000259 -0.001949 -173.277206 -1.202177 -5.790994 11.325569 -0.013714 0.090177 -82.601067 0.337385 -2.89556 -4.862853 1.507731 2.163241 -0.995139 0.000766 0.000358 5.165946 -1.610323 -2.708496 13.133829 -0.017429 -0.042514 -82.495255 -4.926514 -4.827932 -5.034249 0.60606 1.662824 -0.999243 -0.002666 -0.000609 
0.0 0.0 0.0 0.0 -0.0 0.0 0.669744 99.602669 6.143157 90.035042 4.720834 89.975914 -1.087815 0.296228 -0.178425 -10.71989 -0.430849 -0.08807 17.519552 -0.547513 -2.443456 23.483303 -3.063597 2.639444 -2.631472 -0.566587 0.106321 -25.2069 2.128201 -1.507134 0.000965 0.000209 -0.000106 -0.031071 0.002594 0.113138 -0.012441 0.088445 0.117018 -0.013757 -0.086153 0.119201 -142.495895 -66.03373 155.872375 15.1481 -54.725132 19.501234 26.447557 0.229908 -0.105216 -2.417278 3.950479 -3.732724 17.632959 -26.343702 52.477695 -19.472408 -14.393159 29.431913 0.002018 -8.774431 -0.002265 15.665034 -18.265242 6.524652 -0.604248 -1.788943 -3.887156 -4.811121 -11.049045 -2.933202 0.002435 -20.983168 0.00331 -5.018466 -25.029554 -4.046952 -0.000288 0.010123 0.002562 -10.631417 -5.679774 -3.560925 10.572557 -17.913578 -3.110928 -0.001633 -13.816081 -0.000218 -0.499539 -31.147783 -4.032014 -11.913779 -59.871807 7.960243 -13.981804 -7.140604 -2.865586 13.773021 -8.395213 -3.229045 0.339071 -34.20261 0.78814 -0.954621 -17.717354 2.607945 -0.002602 -0.005614 0.000651 -17.344938 -20.095974 -4.201531 21.755386 -1.638131 3.87094 -0.008163 -6.338601 0.004388 -1.696914 -22.596498 -6.193635 0.008301 0.000596 -3.9e-05 24.516193 -65.568443 170.804581 11.005573 -53.382599 20.786848 26.959435 0.223669 0.180388 -15.441084 2.099537 -17.708504 22.164316 -20.367975 49.939854 -16.696733 -16.74761 28.472166 -0.00145 -12.690557 0.00041 16.630211 -17.756283 2.500096 -0.107339 -1.506772 -4.27512 -5.039628 -5.606392 -2.949033 -0.001191 -10.99957 -0.000527 -6.113701 -15.871342 -3.843048 -0.002749 0.007325 0.00136 -10.285178 -5.679127 -4.336037 11.031511 -11.300378 -2.373629 -1.386464 -14.242393 -6.323477 -0.628502 -26.888306 -3.827383 -4.156529 -50.23616 -3.591069 -13.713705 -7.35643 -3.714774 18.148987 -14.044269 -3.241773 -0.003051 -18.775885 2e-06 -0.429007 -8.444481 2.555544 -0.000968 5e-06 -0.000121 -15.926407 -20.090931 -5.467574 30.429155 -7.187042 1.73691 0.002393 -8.167185 0.000439 -1.872495 -22.835148 -6.165002 0.004183 0.000363 -0.000503 -172.816895 -1.155373 -5.75063 10.532063 -0.01014 0.121217 -82.297081 0.200755 -2.809226 -4.9356 1.508687 2.155707 -0.99514 -0.000675 -0.000113 5.5838 -1.568861 -2.652345 12.42944 -0.023369 -0.06465 -82.260628 -5.004058 -4.86165 -5.106359 0.605728 1.658063 -1.006109 -0.000468 -0.001346 
0.0 0.0 0.0 0.0 -0.0 0.0 0.665458 99.61454 6.138147 90.000221 4.795261 89.971863 -1.094906 0.301964 -0.161994 -10.755181 -0.435148 -0.09963 17.534307 -0.533782 -2.456583 23.525766 -3.049122 2.616249 -2.643742 -0.586386 0.139533 -25.123438 2.113426 -1.447584 0.000872 -0.000217 8.2e-05 -0.021539 0.003716 0.109184 -0.011735 0.076211 0.114396 -0.018969 -0.071758 0.112288 -142.439224 -65.889473 155.790344 15.059439 -54.577564 19.610262 26.596272 0.161097 -0.133963 -2.427743 3.916503 -3.414026 17.635363 -26.274401 52.328426 -19.434401 -14.397676 29.371395 0.002997 -8.774743 -0.001406 15.668688 -18.260662 6.506718 -0.601871 -1.794558 -3.887034 -4.809647 -11.032713 -2.935945 -0.009057 -20.927696 0.003387 -5.020669 -24.975613 -4.032276 -0.000115 -0.008971 -0.000394 -10.621315 -5.683846 -3.559525 10.563675 -17.899982 -3.107548 -0.004038 -13.782865 0.005544 -0.48693 -31.107847 -4.0289 -11.86283 -59.757061 7.989719 -13.971786 -7.144516 -2.864105 13.766674 -8.384871 -3.218401 0.34504 -34.155449 0.780523 -0.964926 -17.690041 2.609709 0.004563 -0.007547 -0.005639 -17.336817 -20.079399 -4.193731 21.74564 -1.639279 3.870941 0.00021 -6.313938 -0.007597 -1.696403 -22.579388 -6.185246 -0.003584 0.009813 0.005003 24.517689 -65.508133 170.755875 10.951128 -53.353436 20.816769 27.050192 0.253768 0.193142 -15.348888 2.20407 -17.916359 22.184143 -20.413153 49.983311 -16.680487 -16.750511 28.492895 -0.000512 -12.676982 0.003172 16.63558 -17.747173 2.465509 -0.108188 -1.504511 -4.27891 -5.038036 -5.618317 -2.956395 0.000333 -11.017256 0.002679 -6.104625 -15.892606 -3.844068 0.000497 0.005539 0.003765 -10.283895 -5.672336 -4.344622 11.027864 -11.313858 -2.372053 -1.387432 -14.242925 -6.32165 -0.634132 -26.987318 -3.827623 -4.139175 -50.39407 -3.666147 -13.709354 -7.364149 -3.724277 18.140102 -14.052032 -3.238315 -0.004745 -18.79184 0.006984 -0.43265 -8.454096 2.560819 -0.000572 0.006174 0.0001 -15.915628 -20.084059 -5.477525 30.391184 -7.183399 1.734769 0.004357 -8.158731 0.002417 -1.869964 -22.804991 -6.14587 -0.000822 -0.010006 -0.00295 -172.654221 -1.155446 -5.685894 10.29224 -0.007996 0.130482 -82.023636 0.106444 -2.784013 -4.910122 1.504922 2.150228 -0.990676 -0.000969 7.1e-05 5.796487 -1.528668 -2.603112 12.129208 -0.026379 -0.090563 -81.993942 -5.018357 -4.815084 -5.122878 0.599576 1.644543 -0.994573 -0.00268 -0.000617 
0.0 0.0 0.0 0.0 -0.0 0.0 0.642105 99.598412 6.161432 89.990799 4.847067 89.963112 -1.096692 0.315392 -0.150664 -10.769685 -0.447675 -0.109372 17.52939 -0.517282 -2.487694 23.603731 -3.035637 2.637691 -2.655926 -0.611274 0.14045 -25.041798 2.102757 -1.388202 -0.001744 5e-06 -2.7e-05 -0.022352 0.00382 0.099031 -0.024918 0.065922 0.103482 -0.029448 -0.060111 0.103313 -142.368103 -65.898964 155.684967 15.002972 -54.621571 19.791843 26.725338 0.122362 -0.088833 -2.507974 3.912249 -3.255052 17.600725 -26.301418 52.351391 -19.447313 -14.381855 29.374714 0.001584 -8.76387 -0.005176 15.684351 -18.230366 6.475033 -0.610291 -1.79581 -3.893949 -4.799741 -11.043791 -2.93732 -0.000909 -20.964962 0.007763 -5.013831 -25.024561 -4.018127 0.002495 -0.009741 -0.005599 -10.61689 -5.677194 -3.556855 10.563067 -17.913048 -3.122708 -0.001934 -13.817655 0.008728 -0.507837 -31.128307 -4.024796 -11.879527 -59.8573 8.03162 -13.969956 -7.142022 -2.874477 13.762331 -8.40047 -3.211488 0.350895 -34.19278 0.770824 -0.96578 -17.731405 2.627676 0.002112 0.000902 0.001498 -17.317711 -20.077179 -4.201016 21.719566 -1.641925 3.862493 0.004211 -6.331813 -0.00883 -1.686588 -22.54892 -6.177361 -0.001194 0.006779 0.000423 24.473671 -65.472961 170.794022 10.911318 -53.211231 20.912924 27.114151 0.306347 0.174044 -15.22331 2.270383 -17.937469 22.170296 -20.367653 49.898014 -16.669508 -16.725256 28.431475 -0.004236 -12.672808 -0.001984 16.62781 -17.772083 2.441483 -0.10534 -1.509233 -4.271508 -5.030736 -5.596148 -2.946279 0.001615 -10.989841 0.00194 -6.101571 -15.836975 -3.831916 -0.000157 0.000276 -0.000295 -10.273888 -5.672079 -4.33219 11.027039 -11.289043 -2.371056 -1.380816 -14.224544 -6.310593 -0.62437 -26.907301 -3.816084 -4.107112 -50.197525 -3.665859 -13.6961 -7.34941 -3.716365 18.132034 -14.045693 -3.235499 0.005272 -18.779528 0.005316 -0.427318 -8.457397 2.557495 -0.000698 0.002349 -0.000698 -15.912229 -20.058683 -5.465846 30.397266 -7.189526 1.735494 -0.001439 -8.153665 0.001614 -1.860286 -22.816166 -6.142677 -0.001953 0.01963 0.001281 -172.665634 -1.187482 -5.622021 10.48645 -0.011416 0.132186 -82.278839 0.0099 -2.831471 -4.870313 1.522588 2.156698 -0.989155 0.000701 0.000512 5.819693 -1.513914 -2.549195 12.243778 -0.023858 -0.113289 -82.070335 -5.038139 -4.814281 -5.111655 0.593696 1.640691 -0.99814 0.004666 0.000435 
